HIERARCHY
ROOT Pelvis
{
	OFFSET 0.32 0 0
	CHANNELS 6 Xposition Yposition Zposition Zrotation Xrotation Yrotation
	JOINT SpineShoulder
	{
		OFFSET 0 6.740009 0
		CHANNELS 3 Zrotation Xrotation Yrotation
		JOINT Neck
		{
			OFFSET 0 2.640004 0
			CHANNELS 3 Zrotation Xrotation Yrotation
			End Site
			{
				OFFSET 0 4.719998 0
			}
		}
		JOINT ShoulderLeft
		{
			OFFSET 3.340001 0.6799955 0
			CHANNELS 3 Zrotation Xrotation Yrotation
			JOINT ElbowLeft
			{
				OFFSET 5.307964 0 0
				CHANNELS 3 Zrotation Xrotation Yrotation
				End Site
				{
					OFFSET 4.786495 0 0
				}
			}
		}
		JOINT ShoulderRight
		{
			OFFSET -3.300001 0.6799955 0
			CHANNELS 3 Zrotation Xrotation Yrotation
			JOINT ElbowRight
			{
				OFFSET -5.307964 0 0
				CHANNELS 3 Zrotation Xrotation Yrotation
				End Site
				{
					OFFSET -4.786495 0 0
				}
			}
		}
	}
	JOINT HipLeft
	{
		OFFSET 2.560001 -1.599997 0
		CHANNELS 3 Zrotation Xrotation Yrotation
		JOINT KneeLeft
		{
			OFFSET 0 -8.508625 0
			CHANNELS 3 Zrotation Xrotation Yrotation
			End Site
			{
				OFFSET 0 -7.880188 0
			}
		}
	}
	JOINT HipRight
	{
		OFFSET -2.560001 -1.599997 0
		CHANNELS 3 Zrotation Xrotation Yrotation
		JOINT KneeRight
		{
			OFFSET 0 -8.508625 0
			CHANNELS 3 Zrotation Xrotation Yrotation
			End Site
			{
				OFFSET 0 -7.880188 0
			}
		}
	}
}
MOTION
Frames: 35
Frame Time: 0.03333334
0 0 0 0 0 0 0 0 0 0 0 0 0 0 0 0 0 0 0 0 0 0 0 0 0 0 0 0 0 0 0 0 0 0 0 0
0 0 0 -2.043578 9.507063 6.838308 -0.4734133 349.8395 355.2008 -0.2741326 17.53665 0.2478022 -65.56576 26.28786 326.5316 -147.4205 352.4868 316.7734 -289.765 23.03846 36.91323 -223.4742 15.00228 40.4823 -1.869249 0.3226858 359.8495 -354.5018 25.43498 359.8675 -358.2696 0.4943375 0.1430273 -3.604645 20.423 0.1810451
0 0 0 -1.758986 8.703697 3.424241 -359.5899 350.0338 356.8427 -3.488513 18.82405 0.7415372 -67.59637 22.35871 329.5623 -144.7483 3.15625 322.8515 -290.6289 25.47382 35.52797 -227.3879 18.39162 38.16811 -1.860881 3.132566 359.9417 -356.897 24.40507 0.3357497 -359.4528 3.229525 0.06187773 -0.6606945 19.86852 0.170498
0 0 0 -2.123706 9.103005 358.238 -357.1432 352.0091 357.8839 -2.202014 16.76948 0.2485029 -68.95879 13.08277 329.3556 -138.6312 2.491984 326.0199 -294.1585 30.95661 37.49893 -211.6608 12.5021 39.12537 -2.613264 2.14203 359.8874 -356.7024 21.96989 0.675553 -1.162039 0.5709085 359.926 -356.3186 23.51088 0.2943569
0 0 0 -1.728073 8.881211 3.576111 -359.5717 350.1486 356.5271 -3.564825 19.53916 0.7615923 -64.87922 22.82127 326.4725 -143.4644 7.596944 321.6483 -291.9694 25.93283 36.9612 -223.3631 20.41667 39.07941 -1.740446 2.616187 359.93 -356.8664 25.03157 0.2802369 -359.5368 3.216732 0.05658832 -0.2997387 19.42967 0.1437728
0 0 0 -2.341037 9.442781 3.525475 -359.8056 349.566 356.7989 -0.6376076 19.54042 0.375678 -68.33387 23.19835 329.0481 -141.6641 4.964259 323.1066 -292.4056 26.23484 38.794 -222.5999 19.28476 41.38374 -2.066563 1.923374 359.8913 -354.8852 21.56756 0.2797602 -358.5682 3.579963 0.1307154 -0.7930026 19.09837 0.09799723
0 0 0 -2.378047 9.908106 2.56637 -359.5028 349.8581 356.8986 -0.8799136 18.91585 0.3872266 -69.50311 20.90444 329.7626 -139.7113 6.567575 325.2258 -292.9677 27.04005 39.13416 -221.4892 18.64347 40.84087 -2.108657 2.062846 359.8883 -355.0473 20.97331 0.3683121 -358.6104 3.356075 0.1383037 -0.9708228 18.68368 0.1377375
0 0 0 -2.365024 9.982617 2.561269 -359.2601 349.4234 356.7697 -1.289859 19.2752 0.4221601 -69.16989 21.24117 329.0384 -147.166 3.041648 321.7347 -293.1604 27.53572 38.94541 -220.8571 17.242 41.34461 -2.068167 1.907606 359.8841 -355.1604 21.09557 0.3624064 -358.5598 3.263287 0.1413368 -1.20091 18.78619 0.1394924
0 0 0 -2.367904 9.715738 3.701076 -359.87 349.8487 356.7451 -0.4953361 19.3121 0.356509 -68.57393 22.91743 329.165 -141.5529 4.820943 323.7584 -291.981 25.61003 38.64381 -222.6149 19.0513 40.7334 -2.018327 1.757245 359.8838 -354.8788 21.46764 0.2725959 -358.452 3.415313 0.1397278 -0.87682 18.96424 0.07679892
0 0 0 -2.329622 9.507708 3.578988 -359.6085 349.1543 356.6554 -0.9979255 19.92083 0.4097235 -67.9652 23.58833 328.3179 -149.1369 2.134398 319.7863 -292.5154 26.63386 38.56701 -222.045 17.93917 41.81605 -2.028908 1.781333 359.8876 -355.0256 21.73336 0.2753406 -358.4987 3.477862 0.1342498 -1.037307 19.20333 0.09654974
0 0 0 -2.365024 9.982617 2.561269 -359.2601 349.4234 356.7697 -1.289859 19.2752 0.4221601 -69.16989 21.24117 329.0384 -147.166 3.041648 321.7347 -293.1604 27.53572 38.94541 -220.8571 17.242 41.34461 -2.068167 1.907606 359.8841 -355.1604 21.09557 0.3624064 -358.5598 3.263287 0.1413368 -1.20091 18.78619 0.1394924
0 0 0 -1.559907 9.263597 4.718714 -359.9753 352.8474 356.4823 -0.9329212 17.6423 0.2686026 -64.80829 21.36919 327.1324 -153.7732 354.0435 319.7271 -292.8063 21.11934 37.36105 -217.3713 9.29345 39.39755 -2.352178 2.319457 359.8711 -356.4709 23.19692 0.294311 -0.8654759 2.465787 359.965 -358.8406 23.81402 0.2338593
0 0 0 -1.559907 9.263597 4.718714 -359.9753 352.8474 356.4823 -0.9329212 17.6423 0.2686026 -64.80829 21.36919 327.1324 -153.7732 354.0435 319.7271 -292.8063 21.11934 37.36105 -217.3713 9.29345 39.39755 -2.352178 2.319457 359.8711 -356.4709 23.19692 0.294311 -0.8654759 2.465787 359.965 -358.8406 23.81402 0.2338593
0 0 0 -2.281081 9.542902 5.801246 -0.1251934 351.5645 356.5889 -0.1714768 18.1743 0.2671596 -64.67738 24.52026 326.9539 -151.2686 356.2521 319.7911 -291.2549 21.21476 38.34987 -223.4876 16.18129 39.66549 -1.545414 0.8206625 359.889 -355.7039 25.8803 0.07161063 -358.412 2.274462 0.1299037 -0.491181 20.37038 359.985
0 0 0 -2.21173 9.399728 5.039594 -359.7205 351.58 356.8503 -0.764199 18.12088 0.3012147 -64.62231 23.80797 326.6145 -158.5771 349.3097 314.8462 -292.2328 22.27309 38.83977 -222.6436 14.61475 40.5965 -1.836428 1.189584 359.8799 -355.8293 24.57316 0.1938435 -358.571 1.776916 0.1189753 -0.3555279 25.12805 0.03318539
0 0 0 -2.363125 9.947157 5.361239 -359.6252 351.0717 356.4278 -0.6895129 17.90241 0.280551 -65.79888 23.9962 326.6719 -153.5621 352.4862 317.0702 -290.8736 22.57508 38.12188 -222.5604 14.03977 40.05956 -1.931008 358.5094 359.7853 -354.9099 28.07073 359.9554 -358.2449 0.9975643 0.1527603 -0.4335805 23.65444 359.9786
0 0 0 -2.229039 9.233206 2.757843 -358.8532 350.8376 356.7545 -1.753042 18.91114 0.4002074 -65.43222 21.33186 325.8685 -149.739 357.4206 317.7317 -293.7076 26.48646 38.62699 -218.9349 12.10653 41.67085 -1.985981 359.39 359.8179 -355.9947 29.16014 0.254818 -358.3947 2.129253 0.1346719 -1.173037 20.47802 0.1281965
0 0 0 -2.244331 9.354895 3.986501 -359.493 351.4388 357.0949 -0.7784812 18.48153 0.306136 -65.25208 22.76518 326.8252 -156.2673 350.7344 315.7529 -292.9082 23.60005 38.99853 -221.044 14.24499 40.99087 -2.006072 0.3881831 359.8457 -355.1987 23.71923 0.1700174 -358.5787 2.33627 0.1217955 -0.5802658 21.84651 0.08577328
0 0 0 -2.268354 9.645858 4.137597 -359.5364 351.6783 357.0464 -0.6677863 18.28451 0.2909255 -65.52555 22.46305 326.9695 -156.0452 350.42 316.3145 -292.5674 23.04643 38.92636 -221.0127 14.00279 40.4546 -1.956579 0.2080183 359.8389 -355.1835 23.60883 0.1593107 -358.4854 2.182706 0.1310581 -0.6407959 21.68893 0.06667784
0 0 0 -2.162963 9.846354 3.654796 -359.1028 352.1404 356.4026 -1.27171 18.05167 0.304174 -66.50348 20.37709 326.6239 -156.0016 348.9359 315.6844 -293.4163 23.92679 38.58836 -217.0622 8.925593 40.76389 -1.85269 359.6213 359.8273 -355.2449 22.87265 0.1284987 -358.8196 1.695203 0.1083998 -3.248566 20.65764 0.3311366
0 0 0 -2.162963 9.846354 3.654796 -359.1028 352.1404 356.4026 -1.27171 18.05167 0.304174 -66.50348 20.37709 326.6239 -156.0016 348.9359 315.6844 -293.4163 23.92679 38.58836 -217.0622 8.925593 40.76389 -1.85269 359.6213 359.8273 -355.2449 22.87265 0.1284987 -358.8196 1.695203 0.1083998 -3.248566 20.65764 0.3311366
0 0 0 -2.141903 9.654531 5.442879 -359.886 351.6855 356.6072 -0.463423 18.42338 0.2638102 -64.89501 23.98211 326.482 -158.2116 349.6985 315.1956 -291.7617 21.64683 38.52834 -222.4177 14.9811 39.89321 -1.968836 0.3055284 359.8395 -354.8395 23.31999 0.05573722 -358.4848 2.137968 0.1249103 -3.654278 21.75893 0.2675644
0 0 0 -2.803348 9.605547 3.972758 -359.156 351.9994 356.9396 -359.2063 17.89352 0.1067624 -65.27457 21.28516 327.441 -156.603 349.6906 316.7775 -291.2121 21.52001 35.64552 -218.5069 8.211847 38.13247 -0.8944565 0.05896264 359.9251 -356.9849 26.00017 0.2728534 -358.3413 1.136063 0.146746 -0.2194017 25.17351 0.1373236
0 0 0 -2.284716 10.14825 2.663756 -359.0777 352.2933 357.1925 -0.8254034 17.21602 0.2636915 -69.00127 18.0365 330.3515 -159.9342 346.7245 317.5284 -294.6822 24.55676 40.6428 -218.0332 11.80965 41.43594 -1.987886 359.8641 359.8173 -355.4806 21.71225 0.2716636 -358.6393 1.61084 0.1286265 -0.9583748 20.15462 0.1541297
0 0 0 -2.115797 9.171167 0.5110429 -359.6074 354.5231 357.0572 -359.2254 17.2106 0.1861082 -67.21648 13.46291 329.5446 -164.8339 352.8464 319.0852 -302.1105 22.93563 40.69041 -207.9518 358.5489 42.57284 -1.998997 1.150933 359.8799 -357.4735 23.50878 0.5584208 -0.8504593 1.854647 359.9785 -359.3912 23.51358 0.5477739
0 0 0 -2.949059 10.37884 4.834439 -359.5511 353.1515 355.3773 -358.6236 16.31289 0.1223501 -68.99865 19.06376 328.8386 -161.8255 357.6971 320.9206 -292.0926 19.37691 34.34725 -212.6414 2.383682 36.61395 -0.8740971 359.1074 359.896 -355.3577 26.64933 -0.003628165 -358.0348 358.6417 0.1803524 -1.141286 21.00477 0.1418463
0 0 0 -2.810302 10.12129 8.564888 -0.7825473 354.389 355.2456 -357.3849 15.76454 0.08262198 -67.86325 23.75427 329.3955 -165.3033 355.545 321.9757 -288.6848 12.72639 33.43274 -217.2401 4.407282 33.81474 -0.7374771 358.7692 359.911 -354.4643 27.33816 359.5846 -358.2616 359.0172 0.162229 -2.844522 21.37177 0.2187841
0 0 0 -2.925209 9.864031 7.444035 -0.7057984 354.0412 355.1201 -357.2373 16.58495 0.08393612 -69.55411 21.8117 331.0438 -164.1678 352.1444 320.7688 -290.6501 16.11642 35.63058 -218.9578 8.434516 35.47465 -1.055157 359.5869 359.8965 -353.9686 28.1359 359.673 -358.612 0.9791244 0.1255682 -2.215912 19.29961 0.2052903
0 0 0 -1.376089 10.1868 9.149805 -1.328141 354.6304 355.9115 -1.589855 15.00202 0.3291539 -67.53734 23.09615 332.4888 -185.8674 341.1192 312.0511 -288.0825 13.3003 36.63313 -204.9172 357.0652 43.83248 -2.571314 358.2483 359.7337 -353.1586 27.84244 359.3792 -359.3941 2.017202 0.03939288 -2.565647 17.36134 359.9828
0 0 0 -0.856023 9.519659 10.53792 -0.7740882 359.1195 355.9219 -1.292578 12.23955 0.09412567 -62.44602 17.19543 335.7158 -200.4325 327.5726 308.6163 -293.8232 3.632861 34.52171 -198.2062 344.9424 41.76308 -1.74794 1.270116 359.8638 -359.5927 25.28636 0.1443332 -0.2154865 2.780477 359.9655 -2.085852 18.95955 0.01038946
0 0 0 -1.373326 9.821387 12.54504 -1.099279 1.067131 356.6408 -358.9543 9.695225 0.09228367 -60.97025 19.34032 335.3367 -216.4964 329.6324 306.8817 -289.5515 355.4012 31.17235 -190.3412 335.6807 43.18719 -1.828436 0.68023 359.848 -357.2052 21.56336 359.9259 -359.2205 2.316125 0.03579274 -1.682231 21.04392 359.8369
0 0 0 -2.331765 9.408618 8.826348 -0.4133053 3.423182 357.322 -357.2574 8.404729 0.2529278 -60.59497 11.28167 336.4981 -215.9977 324.3699 303.1074 -294.8453 356.3169 30.39005 -174.1217 326.1949 50.69728 -1.036853 1.010157 359.9293 -356.2093 23.04806 359.9715 -358.3959 3.593677 0.1128088 -2.441529 20.77364 0.02727988
0 0 0 -2.002626 8.671491 13.14626 -0.2084654 8.285377 356.2601 -359.5342 6.202993 0.117705 -51.43695 9.600187 335.503 -239.4973 320.4051 296.3349 -297.4889 347.9229 33.84811 -183.4842 333.4872 41.35301 -357.2929 0.7002823 0.1941317 -1.836831 24.30402 359.6451 -0.02534323 4.049995 -0.001568856 -356.3832 21.72052 359.7124
0 0 0 -2.317836 8.51662 13.20115 -359.6049 14.19047 356.7973 -358.3654 359.3271 0.3341846 -47.78434 1.601205 338.2798 -265.4732 318.3485 285.7599 -299.6873 335.2566 25.62171 -117.6733 312.1295 88.09675 -356.6787 0.9103921 0.2324487 -2.335135 24.59317 359.6449 -359.805 4.952016 0.02058246 -355.9395 22.36878 359.7048
0 0 0 -2.144665 8.686008 9.145533 -0.06005169 15.55224 358.3064 -358.3776 358.2192 0.3507761 -44.5134 354.1304 340.2396 -255.2083 319.8922 305.7324 -303.8215 339.2097 29.75363 -130.4653 311.314 75.58765 -356.8782 1.378746 0.2149723 -3.640326 22.51974 359.9181 -0.5925496 4.132513 0.00215221 -356.1515 22.8188 359.9332
